<svg xmlns="http://www.w3.org/2000/svg" width="110.002" height="110" viewBox="0 0 110.002 110">
  <g id="Group_1358482" data-name="Group 1358482" transform="translate(-847.023 -5760.54)">
    <g id="Group_1204489" data-name="Group 1204489">
      <g id="Group_1204463" data-name="Group 1204463" transform="translate(516.023 1323)">
        <g id="Group_1204289" data-name="Group 1204289" transform="translate(-540.113 4160.376)">
          <g id="Group_1188789" data-name="Group 1188789" transform="translate(871.113 277.164)">
            <path id="Path_1243039" data-name="Path 1243039" d="M47.05,0h0a47.05,47.05,0,1,1,0,94.1h0a47.05,47.05,0,1,1,0-94.1Z" transform="translate(7.951 7.949)" fill="#fbf5ee"/>
            <rect id="Rectangle_400907" data-name="Rectangle 400907" width="100.44" height="100.438" rx="50.219" transform="translate(4.782 4.781)" fill="none"/>
            <g id="Group_1098742" data-name="Group 1098742" transform="translate(0)">
              <g id="Rectangle_400898" data-name="Rectangle 400898" transform="translate(0)" fill="none" stroke="#fff" stroke-width="2" opacity="0.859">
                <rect width="110.001" height="110" rx="55" stroke="none"/>
                <rect x="1" y="1" width="108.001" height="108" rx="54" fill="none"/>
              </g>
              <g id="Rectangle_400907-2" data-name="Rectangle 400907" transform="translate(0)" fill="none" stroke="#0f1f33" stroke-linecap="round" stroke-width="2">
                <rect width="110.001" height="110" rx="55" stroke="none"/>
                <rect x="1" y="1" width="108.001" height="108" rx="54" fill="none"/>
              </g>
            </g>
          </g>
        </g>
      </g>
    </g>
    <g id="report_15173762_1_" data-name="report_15173762 (1)" transform="translate(853.793 5778.67)">
      <g id="Group_1356734" data-name="Group 1356734" transform="translate(21.296 5.998)">
        <path id="Path_1328918" data-name="Path 1328918" d="M74.87,63.2V17.606L63.247,6H32.512V63.2Z" transform="translate(-31.175 -5.998)" fill="#d7dfe2" fill-rule="evenodd"/>
        <path id="Path_1328919" data-name="Path 1328919" d="M293.027,17.606,281.4,6V17.606Z" transform="translate(-249.332 -5.998)" fill="#415c6c" fill-rule="evenodd"/>
        <path id="Path_1328920" data-name="Path 1328920" d="M104.975,283.809h5.348v15.268h-5.348Z" transform="translate(-94.69 -249.503)" fill="#ffd15d" fill-rule="evenodd"/>
        <path id="Path_1328921" data-name="Path 1328921" d="M182.118,248.494h5.348v19.629h-5.348Z" transform="translate(-162.306 -218.549)" fill="#f4725c" fill-rule="evenodd"/>
        <path id="Path_1328922" data-name="Path 1328922" d="M259.384,213.186h5.347v23.989h-5.347Z" transform="translate(-230.031 -187.601)" fill="#459cbf" fill-rule="evenodd"/>
        <path id="Path_1328923" data-name="Path 1328923" d="M287.178,370.618h-2.2a1.106,1.106,0,0,0-1.109,1.109v1.7a1.106,1.106,0,0,0,1.109,1.109v1.306h15.876v-1.306a1.115,1.115,0,0,0,1.109-1.109v-1.7a1.116,1.116,0,0,0-1.109-1.109v-1.185H287.178Z" transform="translate(-251.49 -324.553)" fill="#e6bc54" fill-rule="evenodd"/>
        <path id="Path_1328924" data-name="Path 1328924" d="M300.852,410.773H284.975a1.106,1.106,0,0,0-1.109,1.109v1.7a1.106,1.106,0,0,0,1.109,1.11V416h15.876v-1.306a1.116,1.116,0,0,0,1.109-1.11v-1.7A1.115,1.115,0,0,0,300.852,410.773Z" transform="translate(-251.49 -360.788)" fill="#cfa94c" fill-rule="evenodd"/>
        <path id="Path_1328925" data-name="Path 1328925" d="M300.852,442.518H284.975a1.106,1.106,0,0,0-1.109,1.109v1.7a1.106,1.106,0,0,0,1.109,1.109v1.306h15.876v-1.306a1.115,1.115,0,0,0,1.109-1.109v-1.7A1.115,1.115,0,0,0,300.852,442.518Z" transform="translate(-251.49 -388.613)" fill="#e6bc54" fill-rule="evenodd"/>
        <path id="Path_1328926" data-name="Path 1328926" d="M300.852,474.258H284.975a1.106,1.106,0,0,0-1.109,1.109v1.7a1.106,1.106,0,0,0,1.109,1.109h15.876a1.115,1.115,0,0,0,1.109-1.109v-1.7A1.115,1.115,0,0,0,300.852,474.258Z" transform="translate(-251.49 -416.434)" fill="#cfa94c" fill-rule="evenodd"/>
        <path id="Path_1328927" data-name="Path 1328927" d="M318.691,340.817h-5.227v-.911h-10.65v.911a1.106,1.106,0,0,0-1.109,1.109v1.7a1.106,1.106,0,0,0,1.109,1.109h15.876a1.115,1.115,0,0,0,1.109-1.109v-1.7A1.115,1.115,0,0,0,318.691,340.817Z" transform="translate(-267.126 -298.673)" fill="#cfa94c" fill-rule="evenodd"/>
        <path id="Path_1328928" data-name="Path 1328928" d="M276.369,315.545H260.493a1.115,1.115,0,0,0-1.109,1.109v1.7a1.115,1.115,0,0,0,1.109,1.109h15.876a1.115,1.115,0,0,0,1.109-1.109v-1.7A1.115,1.115,0,0,0,276.369,315.545Z" transform="translate(-230.031 -277.32)" fill="#e6bc54" fill-rule="evenodd"/>
        <path id="Path_1328929" data-name="Path 1328929" d="M371.185,394.709a7.84,7.84,0,1,0-7.839-7.839A7.859,7.859,0,0,0,371.185,394.709Z" transform="translate(-321.155 -332.965)" fill="#ffd15d" fill-rule="evenodd"/>
        <path id="Path_1328930" data-name="Path 1328930" d="M27.472,473.864h1.261v-4.528H27.472L21.684,471.6Z" transform="translate(-21.684 -412.12)" fill="#ffd15d" fill-rule="evenodd"/>
        <path id="Path_1328931" data-name="Path 1328931" d="M73.726,469.336H98.733v4.528H73.726Z" transform="translate(-67.299 -412.12)" fill="#66c5bc" fill-rule="evenodd"/>
        <path id="Path_1328932" data-name="Path 1328932" d="M252.457,473.864h-5.5v-4.528l5.727.016a2.262,2.262,0,0,1-.227,4.512Z" transform="translate(-219.139 -412.12)" fill="#5cb1a9" fill-rule="evenodd"/>
      </g>
      <path id="Path_1328933" data-name="Path 1328933" d="M73.517,59.783a3.528,3.528,0,0,0-2.7-1.316c-.862-.112-1.289-.193-1.587-.782a.877.877,0,0,1-.03-.751,1.45,1.45,0,0,1,.977-.722,2.137,2.137,0,0,1,2.177.537.756.756,0,1,0,1.174-.952,3.316,3.316,0,0,0-1.951-1.111v-.221a.756.756,0,1,0-1.511,0v.227c-.106.022-.212.04-.316.07a2.916,2.916,0,0,0-1.935,1.568,2.4,2.4,0,0,0,.064,2.033,3.1,3.1,0,0,0,2.743,1.6c.793.1,1.3.193,1.679.711a1,1,0,0,1,.167.91,1.547,1.547,0,0,1-1.1.882,2.294,2.294,0,0,1-2.339-.577.755.755,0,1,0-1.178.946,3.467,3.467,0,0,0,2.219,1.2V64.2a.756.756,0,1,0,1.511,0v-.237c.073-.017.146-.026.219-.047a3,3,0,0,0,2.1-1.852,2.49,2.49,0,0,0-.379-2.283ZM58.2,23.645l-3.647-1.63a.755.755,0,0,0-.616,1.379l2.026.907L28.882,35.448a.756.756,0,0,0,.575,1.4L56.574,25.685l-.751,1.983a.755.755,0,1,0,1.413.535L58.6,24.6A.756.756,0,0,0,58.2,23.645Zm-16.908-10H28.34a.756.756,0,1,0,0,1.511H41.294a.756.756,0,0,0,0-1.511Zm0,4.284H28.34a.756.756,0,1,0,0,1.511H41.294a.756.756,0,0,0,0-1.511Zm0,0H28.34a.756.756,0,1,0,0,1.511H41.294a.756.756,0,0,0,0-1.511Zm0-4.284H28.34a.756.756,0,1,0,0,1.511H41.294a.756.756,0,0,0,0-1.511Zm16.908,10-3.647-1.63a.755.755,0,0,0-.616,1.379l2.026.907L28.882,35.448a.756.756,0,0,0,.575,1.4L56.574,25.685l-.751,1.983a.755.755,0,1,0,1.413.535L58.6,24.6A.756.756,0,0,0,58.2,23.645ZM73.517,59.783a3.528,3.528,0,0,0-2.7-1.316c-.862-.112-1.289-.193-1.587-.782a.877.877,0,0,1-.03-.751,1.45,1.45,0,0,1,.977-.722,2.137,2.137,0,0,1,2.177.537.756.756,0,1,0,1.174-.952,3.316,3.316,0,0,0-1.951-1.111v-.221a.756.756,0,1,0-1.511,0v.227c-.106.022-.212.04-.316.07a2.916,2.916,0,0,0-1.935,1.568,2.4,2.4,0,0,0,.064,2.033,3.1,3.1,0,0,0,2.743,1.6c.793.1,1.3.193,1.679.711a1,1,0,0,1,.167.91,1.547,1.547,0,0,1-1.1.882,2.294,2.294,0,0,1-2.339-.577.755.755,0,1,0-1.178.946,3.467,3.467,0,0,0,2.219,1.2V64.2a.756.756,0,1,0,1.511,0v-.237c.073-.017.146-.026.219-.047a3,3,0,0,0,2.1-1.852,2.49,2.49,0,0,0-.379-2.283Zm0,0a3.528,3.528,0,0,0-2.7-1.316c-.862-.112-1.289-.193-1.587-.782a.877.877,0,0,1-.03-.751,1.45,1.45,0,0,1,.977-.722,2.137,2.137,0,0,1,2.177.537.756.756,0,1,0,1.174-.952,3.316,3.316,0,0,0-1.951-1.111v-.221a.756.756,0,1,0-1.511,0v.227c-.106.022-.212.04-.316.07a2.916,2.916,0,0,0-1.935,1.568,2.4,2.4,0,0,0,.064,2.033,3.1,3.1,0,0,0,2.743,1.6c.793.1,1.3.193,1.679.711a1,1,0,0,1,.167.91,1.547,1.547,0,0,1-1.1.882,2.294,2.294,0,0,1-2.339-.577.755.755,0,1,0-1.178.946,3.467,3.467,0,0,0,2.219,1.2V64.2a.756.756,0,1,0,1.511,0v-.237c.073-.017.146-.026.219-.047a3,3,0,0,0,2.1-1.852,2.49,2.49,0,0,0-.379-2.283ZM58.2,23.645l-3.647-1.63a.755.755,0,0,0-.616,1.379l2.026.907L28.882,35.448a.756.756,0,0,0,.575,1.4L56.574,25.685l-.751,1.983a.755.755,0,1,0,1.413.535L58.6,24.6A.756.756,0,0,0,58.2,23.645ZM28.34,15.16H41.294a.756.756,0,1,0,0-1.511H28.34a.756.756,0,0,0,0,1.511Zm13.71,3.528a.756.756,0,0,0-.756-.756H28.34a.756.756,0,0,0,0,1.511H41.294A.756.756,0,0,0,42.05,18.688ZM73.9,51.531a1.808,1.808,0,0,0,.256-.919V48.937a1.833,1.833,0,0,0-1.837-1.824H69.021a1.757,1.757,0,0,0,.033-.326V45.113a1.833,1.833,0,0,0-1.837-1.823H65.333V18.036a.757.757,0,0,0-.221-.536L53.833,6.222c-.01-.01-.022-.017-.033-.027a.687.687,0,0,0-.08-.065.36.36,0,0,0-.037-.021.829.829,0,0,0-.093-.049c-.015-.006-.032-.009-.047-.013a.6.6,0,0,0-.1-.03A.748.748,0,0,0,53.3,6H23.317a.757.757,0,0,0-.757.756V63.75l-.837.327a.755.755,0,0,0,0,1.408l5.662,2.208a.745.745,0,0,0,.274.052H54.5c.015,0,.03,0,.044,0s.03,0,.044,0H70.165a1.048,1.048,0,0,0,.178-.015.473.473,0,0,0,.06-.006c.138.007.274.021.414.021A8.4,8.4,0,0,0,73.9,51.531Zm-1.582-2.906a.32.32,0,0,1,.326.312v1.674a.331.331,0,0,1-.326.326h-15.5a.32.32,0,0,1-.311-.326V48.937a.309.309,0,0,1,.311-.312ZM55.021,50.938h-.358a1.824,1.824,0,0,0-1.823,1.823v1.6H51.4V48.594a1.86,1.86,0,0,0,.312.031h3.307a1.741,1.741,0,0,0-.032.312v1.674A1.894,1.894,0,0,0,55.021,50.938Zm-.671,5.647a.309.309,0,0,1,.312-.312H63a8.352,8.352,0,0,0-.55,2.313h-7.79a.32.32,0,0,1-.312-.326Zm.312-1.823a.321.321,0,0,1-.312-.327V52.761a.309.309,0,0,1,.312-.311h11.36a8.468,8.468,0,0,0-2.241,2.313H54.663ZM67.216,44.8a.32.32,0,0,1,.326.311v1.674a.331.331,0,0,1-.326.326h-15.5a.32.32,0,0,1-.312-.326V45.113a.308.308,0,0,1,.312-.311ZM51.4,43.321V32.47h3.691V43.29H51.714a1.86,1.86,0,0,0-.312.031ZM27.51,66.119l-3.433-1.339,3.433-1.34Zm-.126-4.252-3.312,1.293V7.512h28.47V18.036a.755.755,0,0,0,.756.755h5.617a.756.756,0,1,0,0-1.511H54.054v-8.7l9.768,9.768V43.29H56.6V31.715a.756.756,0,0,0-.756-.756h-5.2a.756.756,0,0,0-.756.756V54.361H47.312V35.969a.756.756,0,0,0-.756-.756H41.338a.756.756,0,0,0-.756.756V54.361H38.019V40.223a.756.756,0,0,0-.757-.756H32.046a.756.756,0,0,0-.756.756V54.361H28.977a.756.756,0,1,0,0,1.511H52.985a1.826,1.826,0,0,0-.144.713V58.26a1.828,1.828,0,0,0,.354,1.079,1.8,1.8,0,0,0-.354,1.069v1.409H27.659a.77.77,0,0,0-.274.051ZM45.8,36.725V54.361H42.094V36.725Zm-9.294,4.254V54.361H32.8V40.979ZM48.393,66.233H29.023v-2.9h19.37Zm7.56-1.387A1.457,1.457,0,0,1,54.5,66.233H49.9v-2.9h4.789a1.469,1.469,0,0,1,1.26,1.518Zm-1.14-3.025c-.026,0-.052,0-.077,0H54.35V60.408a.309.309,0,0,1,.312-.311h7.79A8.346,8.346,0,0,0,63,62.41H56.29A2.925,2.925,0,0,0,54.813,61.821Zm2.256,4.412a2.861,2.861,0,0,0,.264-2.312h6.447a8.461,8.461,0,0,0,2.241,2.312H57.069Zm13.748,0a6.892,6.892,0,1,1,6.892-6.892A6.9,6.9,0,0,1,70.817,66.233Zm0-7.766c-.862-.112-1.289-.193-1.587-.782a.877.877,0,0,1-.03-.751,1.45,1.45,0,0,1,.977-.722,2.137,2.137,0,0,1,2.177.537.756.756,0,1,0,1.174-.952,3.316,3.316,0,0,0-1.951-1.111v-.221a.756.756,0,1,0-1.511,0v.227c-.106.022-.212.04-.316.07a2.916,2.916,0,0,0-1.935,1.568,2.4,2.4,0,0,0,.064,2.033,3.1,3.1,0,0,0,2.743,1.6c.793.1,1.3.193,1.679.711a1,1,0,0,1,.167.91,1.547,1.547,0,0,1-1.1.882,2.294,2.294,0,0,1-2.339-.577.755.755,0,1,0-1.178.946,3.467,3.467,0,0,0,2.219,1.2V64.2a.756.756,0,1,0,1.511,0v-.237c.073-.017.146-.026.219-.047a3,3,0,0,0,2.1-1.852,2.489,2.489,0,0,0-.379-2.283,3.529,3.529,0,0,0-2.7-1.316ZM28.471,36.434a.756.756,0,0,0,.987.411L56.574,25.685l-.751,1.983a.755.755,0,1,0,1.413.535L58.6,24.6a.756.756,0,0,0-.4-.957l-3.647-1.63a.755.755,0,1,0-.616,1.379l2.026.907L28.882,35.448a.757.757,0,0,0-.411.987ZM28.34,15.16H41.294a.756.756,0,1,0,0-1.511H28.34a.756.756,0,0,0,0,1.511Zm12.954,4.284a.756.756,0,1,0,0-1.511H28.34a.756.756,0,0,0,0,1.511Zm0-1.511H28.34a.756.756,0,0,0,0,1.511H41.294a.756.756,0,1,0,0-1.511Zm0-4.284H28.34a.756.756,0,0,0,0,1.511H41.294a.756.756,0,1,0,0-1.511Zm16.908,10-3.647-1.63a.755.755,0,1,0-.616,1.379l2.026.907L28.882,35.448a.756.756,0,0,0,.575,1.4L56.574,25.685l-.751,1.983a.755.755,0,1,0,1.413.535L58.6,24.6A.756.756,0,0,0,58.2,23.645ZM73.517,59.783a3.528,3.528,0,0,0-2.7-1.316c-.862-.112-1.289-.193-1.587-.782a.877.877,0,0,1-.03-.751,1.45,1.45,0,0,1,.977-.722,2.137,2.137,0,0,1,2.177.537.756.756,0,1,0,1.174-.952,3.316,3.316,0,0,0-1.951-1.111v-.221a.756.756,0,1,0-1.511,0v.227c-.106.022-.212.04-.316.07a2.916,2.916,0,0,0-1.935,1.568,2.4,2.4,0,0,0,.064,2.033,3.1,3.1,0,0,0,2.743,1.6c.793.1,1.3.193,1.679.711a1,1,0,0,1,.167.91,1.547,1.547,0,0,1-1.1.882,2.294,2.294,0,0,1-2.339-.577.755.755,0,1,0-1.178.946,3.467,3.467,0,0,0,2.219,1.2V64.2a.756.756,0,1,0,1.511,0v-.237c.073-.017.146-.026.219-.047a3,3,0,0,0,2.1-1.852,2.49,2.49,0,0,0-.379-2.283Zm0,0a3.528,3.528,0,0,0-2.7-1.316c-.862-.112-1.289-.193-1.587-.782a.877.877,0,0,1-.03-.751,1.45,1.45,0,0,1,.977-.722,2.137,2.137,0,0,1,2.177.537.756.756,0,1,0,1.174-.952,3.316,3.316,0,0,0-1.951-1.111v-.221a.756.756,0,1,0-1.511,0v.227c-.106.022-.212.04-.316.07a2.916,2.916,0,0,0-1.935,1.568,2.4,2.4,0,0,0,.064,2.033,3.1,3.1,0,0,0,2.743,1.6c.793.1,1.3.193,1.679.711a1,1,0,0,1,.167.91,1.547,1.547,0,0,1-1.1.882,2.294,2.294,0,0,1-2.339-.577.755.755,0,1,0-1.178.946,3.467,3.467,0,0,0,2.219,1.2V64.2a.756.756,0,1,0,1.511,0v-.237c.073-.017.146-.026.219-.047a3,3,0,0,0,2.1-1.852,2.49,2.49,0,0,0-.379-2.283ZM58.2,23.645l-3.647-1.63a.755.755,0,1,0-.616,1.379l2.026.907L28.882,35.448a.756.756,0,0,0,.575,1.4L56.574,25.685l-.751,1.983a.755.755,0,1,0,1.413.535L58.6,24.6A.756.756,0,0,0,58.2,23.645Zm-16.908-10H28.34a.756.756,0,0,0,0,1.511H41.294a.756.756,0,0,0,0-1.511Zm0,4.284H28.34a.756.756,0,0,0,0,1.511H41.294a.756.756,0,0,0,0-1.511ZM73.517,59.783a3.528,3.528,0,0,0-2.7-1.316c-.862-.112-1.289-.193-1.587-.782a.877.877,0,0,1-.03-.751,1.45,1.45,0,0,1,.977-.722,2.137,2.137,0,0,1,2.177.537.756.756,0,1,0,1.174-.952,3.316,3.316,0,0,0-1.951-1.111v-.221a.756.756,0,1,0-1.511,0v.227c-.106.022-.212.04-.316.07a2.916,2.916,0,0,0-1.935,1.568,2.4,2.4,0,0,0,.064,2.033,3.1,3.1,0,0,0,2.743,1.6c.793.1,1.3.193,1.679.711a1,1,0,0,1,.167.91,1.547,1.547,0,0,1-1.1.882,2.294,2.294,0,0,1-2.339-.577.755.755,0,1,0-1.178.946,3.467,3.467,0,0,0,2.219,1.2V64.2a.756.756,0,0,0,1.511,0v-.237c.073-.017.146-.026.219-.047a3,3,0,0,0,2.1-1.852,2.49,2.49,0,0,0-.379-2.283ZM41.294,13.648H28.34a.756.756,0,0,0,0,1.511H41.294a.756.756,0,1,0,0-1.511Zm0,4.284H28.34a.756.756,0,0,0,0,1.511H41.294a.756.756,0,1,0,0-1.511ZM58.2,23.645l-3.647-1.63a.755.755,0,1,0-.616,1.379l2.026.907L28.882,35.448a.756.756,0,0,0,.575,1.4L56.574,25.685l-.751,1.983a.755.755,0,1,0,1.413.535L58.6,24.6a.756.756,0,0,0-.4-.957Z" transform="translate(0 -0.003)"/>
    </g>
  </g>
</svg>
