<svg xmlns="http://www.w3.org/2000/svg" width="100" height="99.999" viewBox="0 0 100 99.999">
  <g id="Group_1358308" data-name="Group 1358308" transform="translate(-803.781 -1968)">
    <g id="Group_1356702" data-name="Group 1356702">
      <g id="Group_1356691" data-name="Group 1356691">
        <g id="Group_1356675" data-name="Group 1356675" transform="translate(-1 1)">
          <g id="Group_1204437" data-name="Group 1204437" transform="translate(804.781 1967)">
            <g id="Group_1204285" data-name="Group 1204285">
              <g id="Group_1204180" data-name="Group 1204180">
                <g id="Group_1204143" data-name="Group 1204143">
                  <g id="Group_1188789" data-name="Group 1188789" transform="translate(0 0)">
                    <path id="Path_1243039" data-name="Path 1243039" d="M42.05,0h0a42.05,42.05,0,1,1,0,84.1h0a42.05,42.05,0,1,1,0-84.1Z" transform="translate(7.951 7.949)" fill="#b1bbc3"/>
                    <rect id="Rectangle_400907" data-name="Rectangle 400907" width="90.438" height="90.437" rx="45.218" transform="translate(4.782 4.781)" fill="none"/>
                    <g id="Group_1098742" data-name="Group 1098742" transform="translate(0)">
                      <g id="Rectangle_400898" data-name="Rectangle 400898" transform="translate(0)" fill="none" stroke="#fff" stroke-width="2" opacity="0.859">
                        <rect width="100" height="99.998" rx="49.999" stroke="none"/>
                        <rect x="1" y="1" width="98" height="97.998" rx="48.999" fill="none"/>
                      </g>
                      <g id="Rectangle_400907-2" data-name="Rectangle 400907" transform="translate(0)" fill="none" stroke="#0f1f33" stroke-linecap="round" stroke-width="2">
                        <rect width="100" height="99.998" rx="49.999" stroke="none"/>
                        <rect x="1" y="1" width="98" height="97.998" rx="48.999" fill="none"/>
                      </g>
                    </g>
                  </g>
                </g>
              </g>
            </g>
          </g>
        </g>
      </g>
    </g>
    <g id="Group_1365489" data-name="Group 1365489" transform="translate(6748.449 6179.281)">
      <path id="Path_1532507" data-name="Path 1532507" d="M763.083,1135.725v5.68h-9.12v-11.27h9.12Z" transform="translate(-6649.131 -5279.857)" fill="#a28671"/>
      <path id="Path_1532508" data-name="Path 1532508" d="M781.153,1109.463v29.481h-5.746v-33.809Z" transform="translate(-6651.242 -5277.396)" fill="#95afc0"/>
      <rect id="Rectangle_462308" data-name="Rectangle 462308" width="10.306" height="5.68" transform="translate(-5886.049 -4144.132)" fill="#5b6072"/>
      <rect id="Rectangle_462309" data-name="Rectangle 462309" width="10.306" height="5.68" transform="translate(-5905.475 -4144.132)" fill="#5b6072"/>
      <path id="Path_1532509" data-name="Path 1532509" d="M736.478,1138.7h-9.12v-36.063h13.68V1138.7Z" transform="translate(-6646.512 -5277.15)" fill="#95afc0"/>
      <rect id="Rectangle_462310" data-name="Rectangle 462310" width="20.521" height="4.508" transform="translate(-5900.915 -4190.292)" fill="#5b6072"/>
      <path id="Path_1532510" data-name="Path 1532510" d="M772.172,1103.649v28.219H761.957v-5.68h-9.12v5.68H742.531v-41.832h29.641Zm-4.56,16.859h-2.28v2.254h2.28Zm0-4.508h-2.28v2.254h2.28Zm0-4.508h-2.28v2.254h2.28Zm0-4.508h-2.28v2.254h2.28Zm0-4.508h-2.28v2.254h2.28Zm0-4.508h-2.28v2.254h2.28Zm0-4.508h-2.28v2.254h2.28Zm-4.56,27.047h-2.28v2.254h2.28Zm0-4.508h-2.28v2.254h2.28Zm0-4.508h-2.28v2.254h2.28Zm0-4.508h-2.28v2.254h2.28Zm0-4.508h-2.28v2.254h2.28Zm0-4.508h-2.28v2.254h2.28Zm0-4.508h-2.28v2.254h2.28Zm-4.56,27.047h-2.28v2.254h2.28Zm0-4.508h-2.28v2.254h2.28Zm0-4.508h-2.28v2.254h2.28Zm0-4.508h-2.28v2.254h2.28Zm0-4.508h-2.28v2.254h2.28Zm0-4.508h-2.28v2.254h2.28Zm0-4.508h-2.28v2.254h2.28Zm-4.56,27.047h-2.28v2.254h2.28Zm0-4.508h-2.28v2.254h2.28Zm0-4.508h-2.28v2.254h2.28Zm0-4.508h-2.28v2.254h2.28Zm0-4.508h-2.28v2.254h2.28Zm0-4.508h-2.28v2.254h2.28Zm0-4.508h-2.28v2.254h2.28Zm-4.56,27.047h-2.28v2.254h2.28Zm0-4.508h-2.28v2.254h2.28Zm0-4.508h-2.28v2.254h2.28Zm0-4.508h-2.28v2.254h2.28Zm0-4.508h-2.28v2.254h2.28Zm0-4.508h-2.28v2.254h2.28Zm0-4.508h-2.28v2.254h2.28Z" transform="translate(-6648.006 -5275.91)" fill="#707487"/>
      <rect id="Rectangle_462311" data-name="Rectangle 462311" width="2.28" height="2.254" transform="translate(-5882.675 -4155.402)"/>
      <rect id="Rectangle_462312" data-name="Rectangle 462312" width="2.28" height="2.254" transform="translate(-5882.675 -4159.91)"/>
      <rect id="Rectangle_462313" data-name="Rectangle 462313" width="2.28" height="2.254" transform="translate(-5882.675 -4164.417)"/>
      <rect id="Rectangle_462314" data-name="Rectangle 462314" width="2.28" height="2.254" transform="translate(-5882.675 -4168.925)"/>
      <rect id="Rectangle_462315" data-name="Rectangle 462315" width="2.28" height="2.254" transform="translate(-5882.675 -4173.433)"/>
      <rect id="Rectangle_462316" data-name="Rectangle 462316" width="2.28" height="2.254" transform="translate(-5882.675 -4177.941)"/>
      <rect id="Rectangle_462317" data-name="Rectangle 462317" width="2.28" height="2.254" transform="translate(-5882.675 -4182.449)"/>
      <rect id="Rectangle_462318" data-name="Rectangle 462318" width="2.28" height="2.254" transform="translate(-5887.234 -4155.402)"/>
      <rect id="Rectangle_462319" data-name="Rectangle 462319" width="2.28" height="2.254" transform="translate(-5887.234 -4159.91)"/>
      <rect id="Rectangle_462320" data-name="Rectangle 462320" width="2.28" height="2.254" transform="translate(-5887.234 -4164.417)"/>
      <rect id="Rectangle_462321" data-name="Rectangle 462321" width="2.28" height="2.254" transform="translate(-5887.234 -4168.925)"/>
      <rect id="Rectangle_462322" data-name="Rectangle 462322" width="2.28" height="2.254" transform="translate(-5887.234 -4173.433)"/>
      <rect id="Rectangle_462323" data-name="Rectangle 462323" width="2.28" height="2.254" transform="translate(-5887.234 -4177.941)"/>
      <rect id="Rectangle_462324" data-name="Rectangle 462324" width="2.28" height="2.254" transform="translate(-5887.234 -4182.449)"/>
      <rect id="Rectangle_462325" data-name="Rectangle 462325" width="2.28" height="2.254" transform="translate(-5891.794 -4155.402)"/>
      <rect id="Rectangle_462326" data-name="Rectangle 462326" width="2.28" height="2.254" transform="translate(-5891.794 -4159.91)"/>
      <rect id="Rectangle_462327" data-name="Rectangle 462327" width="2.28" height="2.254" transform="translate(-5891.794 -4164.417)"/>
      <rect id="Rectangle_462328" data-name="Rectangle 462328" width="2.28" height="2.254" transform="translate(-5891.794 -4168.925)"/>
      <rect id="Rectangle_462329" data-name="Rectangle 462329" width="2.28" height="2.254" transform="translate(-5891.794 -4173.433)"/>
      <rect id="Rectangle_462330" data-name="Rectangle 462330" width="2.28" height="2.254" transform="translate(-5891.794 -4177.941)"/>
      <rect id="Rectangle_462331" data-name="Rectangle 462331" width="2.28" height="2.254" transform="translate(-5891.794 -4182.449)"/>
      <rect id="Rectangle_462332" data-name="Rectangle 462332" width="2.28" height="2.254" transform="translate(-5896.354 -4155.402)"/>
      <rect id="Rectangle_462333" data-name="Rectangle 462333" width="2.28" height="2.254" transform="translate(-5896.354 -4159.91)"/>
      <rect id="Rectangle_462334" data-name="Rectangle 462334" width="2.28" height="2.254" transform="translate(-5896.354 -4164.417)"/>
      <rect id="Rectangle_462335" data-name="Rectangle 462335" width="2.28" height="2.254" transform="translate(-5896.354 -4168.925)"/>
      <rect id="Rectangle_462336" data-name="Rectangle 462336" width="2.28" height="2.254" transform="translate(-5896.354 -4173.433)"/>
      <rect id="Rectangle_462337" data-name="Rectangle 462337" width="2.28" height="2.254" transform="translate(-5896.354 -4177.941)"/>
      <rect id="Rectangle_462338" data-name="Rectangle 462338" width="2.28" height="2.254" transform="translate(-5896.354 -4182.449)"/>
      <rect id="Rectangle_462339" data-name="Rectangle 462339" width="2.28" height="2.254" transform="translate(-5900.915 -4155.402)"/>
      <rect id="Rectangle_462340" data-name="Rectangle 462340" width="2.28" height="2.254" transform="translate(-5900.915 -4159.91)"/>
      <rect id="Rectangle_462341" data-name="Rectangle 462341" width="2.28" height="2.254" transform="translate(-5900.915 -4164.417)"/>
      <rect id="Rectangle_462342" data-name="Rectangle 462342" width="2.28" height="2.254" transform="translate(-5900.915 -4168.925)"/>
      <rect id="Rectangle_462343" data-name="Rectangle 462343" width="2.28" height="2.254" transform="translate(-5900.915 -4173.433)"/>
      <rect id="Rectangle_462344" data-name="Rectangle 462344" width="2.28" height="2.254" transform="translate(-5900.915 -4177.941)"/>
      <rect id="Rectangle_462345" data-name="Rectangle 462345" width="2.28" height="2.254" transform="translate(-5900.915 -4182.449)"/>
      <path id="Path_1532511" data-name="Path 1532511" d="M742.4,1102.358a1.2,1.2,0,0,1-1.186-1.172v-11.179a1.2,1.2,0,0,1,1.186-1.172h4.56a1.172,1.172,0,1,1,0,2.344H743.5v10.188c.091.451-.456.992-1.095.992" transform="translate(-6647.876 -5275.792)"/>
      <path id="Path_1532512" data-name="Path 1532512" d="M774.78,1104.6a1.2,1.2,0,0,1-1.186-1.172v-12.352H770.22a1.172,1.172,0,1,1,0-2.344h4.56a1.2,1.2,0,0,1,1.186,1.172v13.523a1.2,1.2,0,0,1-1.186,1.172" transform="translate(-6650.615 -5275.782)"/>
      <path id="Path_1532513" data-name="Path 1532513" d="M774.162,1143.579H763.948a1.172,1.172,0,1,1,0-2.344h10.214a1.172,1.172,0,1,1,0,2.344" transform="translate(-6649.997 -5280.949)"/>
      <path id="Path_1532514" data-name="Path 1532514" d="M752.707,1143.579H742.4a1.172,1.172,0,1,1,0-2.344h10.306a1.2,1.2,0,0,1,1.186,1.172,1.345,1.345,0,0,1-1.186,1.172" transform="translate(-6647.876 -5280.949)"/>
      <path id="Path_1532515" data-name="Path 1532515" d="M767.98,1090.587H747.46a1.2,1.2,0,0,1-1.186-1.171v-4.508a1.2,1.2,0,0,1,1.186-1.172H767.98a1.2,1.2,0,0,1,1.186,1.172v4.508a1.2,1.2,0,0,1-1.186,1.171m-19.335-2.254h18.24v-2.254h-18.24Z" transform="translate(-6648.375 -5275.29)"/>
      <path id="Path_1532516" data-name="Path 1532516" d="M740.908,1139.642h-13.68a1.2,1.2,0,0,1-1.186-1.171v-36.063a1.2,1.2,0,0,1,1.186-1.172h13.68a1.2,1.2,0,0,1,1.186,1.172v36.063a1.2,1.2,0,0,1-1.186,1.171m-12.494-2.254h11.4v-33.809h-11.4Z" transform="translate(-6646.383 -5277.012)"/>
      <path id="Path_1532517" data-name="Path 1532517" d="M781.024,1139.9h-5.746a1.2,1.2,0,0,1-1.186-1.172v-33.719a1.107,1.107,0,0,1,.638-.992,1.132,1.132,0,0,1,1.186.09l5.746,4.418a1.106,1.106,0,0,1,.455.9v29.391a1.169,1.169,0,0,1-1.094,1.082m-4.56-2.254h3.375v-27.678l-3.467-2.615v30.293Z" transform="translate(-6651.113 -5277.274)"/>
      <path id="Path_1532518" data-name="Path 1532518" d="M762.953,1142.359h-9.12a1.2,1.2,0,0,1-1.186-1.171v-11.18a1.2,1.2,0,0,1,1.186-1.172h9.12a1.2,1.2,0,0,1,1.186,1.172v11.27a1.346,1.346,0,0,1-1.186,1.082m-8.026-2.254h6.84v-9.016h-6.84Z" transform="translate(-6649.001 -5279.729)"/>
      <path id="Path_1532519" data-name="Path 1532519" d="M732.286,1141.118a1.2,1.2,0,0,1-1.186-1.172v-22.539a1.186,1.186,0,0,1,2.371,0v22.539a1.2,1.2,0,0,1-1.186,1.172" transform="translate(-6646.881 -5278.489)"/>
      <path id="Path_1532520" data-name="Path 1532520" d="M737.344,1141.118a1.2,1.2,0,0,1-1.186-1.172v-22.539a1.186,1.186,0,0,1,2.371,0v22.539a1.2,1.2,0,0,1-1.186,1.172" transform="translate(-6647.378 -5278.489)"/>
      <path id="Path_1532521" data-name="Path 1532521" d="M741.406,1099.879h-9.12a1.172,1.172,0,1,1,0-2.344h9.12a1.172,1.172,0,1,1,0,2.344" transform="translate(-6646.881 -5276.648)"/>
      <path id="Path_1532522" data-name="Path 1532522" d="M737.533,1108.579H727.228a1.172,1.172,0,1,1,0-2.344h10.306a1.2,1.2,0,0,1,1.186,1.172,1.345,1.345,0,0,1-1.186,1.172" transform="translate(-6646.383 -5277.504)"/>
      <path id="Path_1532523" data-name="Path 1532523" d="M752.707,1137.379H742.4a1.172,1.172,0,1,1,0-2.344h10.306a1.2,1.2,0,0,1,1.186,1.172,1.345,1.345,0,0,1-1.186,1.172" transform="translate(-6647.876 -5280.339)"/>
      <path id="Path_1532524" data-name="Path 1532524" d="M774.162,1137.379H763.948a1.172,1.172,0,1,1,0-2.344h10.214a1.172,1.172,0,1,1,0,2.344" transform="translate(-6649.997 -5280.339)"/>
    </g>
  </g>
</svg>
