<svg xmlns="http://www.w3.org/2000/svg" width="100" height="99.999" viewBox="0 0 100 99.999">
  <g id="Group_1358204" data-name="Group 1358204" transform="translate(-803.781 -1968)">
    <g id="Group_1356894" data-name="Group 1356894">
      <g id="Group_1356702" data-name="Group 1356702">
        <g id="Group_1356691" data-name="Group 1356691">
          <g id="Group_1356675" data-name="Group 1356675" transform="translate(-1 1)">
            <g id="Group_1204437" data-name="Group 1204437" transform="translate(804.781 1967)">
              <g id="Group_1204285" data-name="Group 1204285">
                <g id="Group_1204180" data-name="Group 1204180">
                  <g id="Group_1204143" data-name="Group 1204143">
                    <g id="Group_1188789" data-name="Group 1188789" transform="translate(0 0)">
                      <path id="Path_1243039" data-name="Path 1243039" d="M42.05,0h0a42.05,42.05,0,1,1,0,84.1h0a42.05,42.05,0,1,1,0-84.1Z" transform="translate(7.951 7.949)" fill="#efd1ae"/>
                      <rect id="Rectangle_400907" data-name="Rectangle 400907" width="90.438" height="90.437" rx="45.218" transform="translate(4.782 4.781)" fill="none"/>
                      <g id="Group_1098742" data-name="Group 1098742" transform="translate(0)">
                        <g id="Rectangle_400898" data-name="Rectangle 400898" transform="translate(0)" fill="none" stroke="#fff" stroke-width="2" opacity="0.859">
                          <rect width="100" height="99.998" rx="49.999" stroke="none"/>
                          <rect x="1" y="1" width="98" height="97.998" rx="48.999" fill="none"/>
                        </g>
                        <g id="Rectangle_400907-2" data-name="Rectangle 400907" transform="translate(0)" fill="none" stroke="#0f1f33" stroke-linecap="round" stroke-width="2">
                          <rect width="100" height="99.998" rx="49.999" stroke="none"/>
                          <rect x="1" y="1" width="98" height="97.998" rx="48.999" fill="none"/>
                        </g>
                      </g>
                    </g>
                  </g>
                </g>
              </g>
            </g>
          </g>
        </g>
      </g>
    </g>
    <g id="Group_1365506" data-name="Group 1365506" transform="translate(7082.615 7263.577)">
      <path id="Path_1532045" data-name="Path 1532045" d="M427.057,1.413A13.705,13.705,0,0,0,421,2.826a13.912,13.912,0,0,0,6.056,26.445,16.026,16.026,0,0,0,3.836-.5,13.78,13.78,0,0,0,10.093-13.324,13.915,13.915,0,0,0-13.929-14.03" transform="translate(-6646.383 -5275.29)" fill="#ffb95a"/>
      <path id="Path_1532046" data-name="Path 1532046" d="M427.057,6.359a8.883,8.883,0,1,1-8.882,8.882,8.883,8.883,0,0,1,8.882-8.882" transform="translate(-6646.383 -5275.29)" fill="#f7d694"/>
      <path id="Path_1532047" data-name="Path 1532047" d="M421,2.725a13.911,13.911,0,0,0,6.056,26.444,15.976,15.976,0,0,0,3.836-.5v27.05H408.183V39.263h-7.57V27.858h-6.359l2.523-10.094A16.391,16.391,0,0,1,413.23,1.312h1.211A17.76,17.76,0,0,1,421,2.725" transform="translate(-6646.383 -5275.29)" fill="#ffd8a8"/>
      <path id="Path_1532048" data-name="Path 1532048" d="M426.855,14.03V12.517c-.606,0-.808.3-.808.706a.777.777,0,0,0,.2.505,1.655,1.655,0,0,0,.606.3m.606,2.221v1.413q.909,0,.909-.6a.768.768,0,0,0-.2-.5c-.2-.1-.505-.2-.706-.3m2.725-4.542-.908,1.614-.2-.2c-.1-.1-.3-.1-.4-.2a1.436,1.436,0,0,0-.605-.2,6.305,6.305,0,0,0-.707-.2v1.614l.4.1a3.621,3.621,0,0,1,1.11.4,2.161,2.161,0,0,1,.807.505,1.808,1.808,0,0,1,.505.706,2.977,2.977,0,0,1,.2,1.009,3.118,3.118,0,0,1-.2,1.111,5.516,5.516,0,0,1-.606.807,4.02,4.02,0,0,1-.908.5,3.6,3.6,0,0,1-1.11.2v1.414h-.808V19.48a9.172,9.172,0,0,1-1.615-.3,6.2,6.2,0,0,1-1.413-.706l.808-1.716a1.246,1.246,0,0,0,.3.2,2.194,2.194,0,0,0,.505.3c.2.1.505.2.706.3a2.383,2.383,0,0,0,.808.2V16.149l-.606-.2a3.014,3.014,0,0,1-1.008-.4,1.82,1.82,0,0,1-.707-.5,2.092,2.092,0,0,1-.4-.606,1.964,1.964,0,0,1-.1-.807,3.619,3.619,0,0,1,.2-1.11,1.565,1.565,0,0,1,.605-.808,1.953,1.953,0,0,1,.909-.5c.3-.1.707-.2,1.11-.3V9.69h.707V10.9a5.865,5.865,0,0,1,1.413.3c.505.2.908.4,1.211.5" transform="translate(-6646.383 -5275.29)"/>
      <path id="Path_1532049" data-name="Path 1532049" d="M430.893,56.927H408.182a1.335,1.335,0,0,1-1.311-1.311V40.476h-6.36a1.337,1.337,0,0,1-1.311-1.313V29.07h-5.047a1.263,1.263,0,0,1-1.212-1.617l2.523-9.991a17.088,17.088,0,0,1,5.149-12.313A17.549,17.549,0,0,1,413.128,0h1.312a16.758,16.758,0,0,1,7.066,1.515A1.22,1.22,0,0,1,420.5,3.736a15.426,15.426,0,0,0-6.057-1.212h-1.312a14.993,14.993,0,0,0-15.14,15.14v.3l-2.119,8.479h4.642a1.336,1.336,0,0,1,1.313,1.311V37.851h6.358a1.336,1.336,0,0,1,1.313,1.312V54.3h20.186V28.565a1.313,1.313,0,0,1,2.625,0V55.616a1.706,1.706,0,0,1-1.413,1.311" transform="translate(-6646.383 -5275.29)"/>
      <path id="Path_1532050" data-name="Path 1532050" d="M427.057,30.382a15.12,15.12,0,0,1-15.14-15.141,14.647,14.647,0,0,1,2.422-8.176,15.307,15.307,0,0,1,6.157-5.45A14.561,14.561,0,0,1,427.057.1,15.123,15.123,0,0,1,431.2,29.776a14.158,14.158,0,0,1-4.139.606m0-27.757a12.616,12.616,0,1,0,0,25.233,12.858,12.858,0,0,0,3.432-.5,12.6,12.6,0,0,0-3.432-24.729" transform="translate(-6646.383 -5275.29)"/>
      <path id="Path_1532051" data-name="Path 1532051" d="M430.893,51.881H413.229a1.336,1.336,0,0,1-1.312-1.312V32.9a1.336,1.336,0,0,1,1.312-1.312A1.251,1.251,0,0,1,414.44,32.9V49.358h16.453A1.335,1.335,0,0,1,432.2,50.67a1.5,1.5,0,0,1-1.311,1.211" transform="translate(-6646.383 -5275.29)"/>
      <path id="Path_1532052" data-name="Path 1532052" d="M438.462,45.521H435.94a1.312,1.312,0,1,1,0-2.624h2.522a1.335,1.335,0,0,1,1.312,1.312,1.494,1.494,0,0,1-1.312,1.312" transform="translate(-6646.383 -5275.29)"/>
      <path id="Path_1532053" data-name="Path 1532053" d="M438.462,41.787H435.94a1.312,1.312,0,1,1,0-2.624h2.522a1.335,1.335,0,0,1,1.312,1.312,1.409,1.409,0,0,1-1.312,1.312" transform="translate(-6646.383 -5275.29)"/>
      <path id="Path_1532054" data-name="Path 1532054" d="M438.462,37.952H435.94a1.313,1.313,0,1,1,0-2.625h2.522a1.335,1.335,0,0,1,1.312,1.313,1.409,1.409,0,0,1-1.312,1.312" transform="translate(-6646.383 -5275.29)"/>
      <path id="Path_1532055" data-name="Path 1532055" d="M438.462,49.357H435.94a1.312,1.312,0,1,1,0-2.624h2.522a1.335,1.335,0,0,1,1.312,1.312,1.494,1.494,0,0,1-1.312,1.312" transform="translate(-6646.383 -5275.29)"/>
      <path id="Path_1532056" data-name="Path 1532056" d="M438.462,53.092H435.94a1.312,1.312,0,1,1,0-2.624h2.522a1.335,1.335,0,0,1,1.312,1.312,1.494,1.494,0,0,1-1.312,1.312" transform="translate(-6646.383 -5275.29)"/>
      <path id="Path_1532057" data-name="Path 1532057" d="M438.462,56.927H435.94a1.313,1.313,0,1,1,0-2.625h2.522a1.337,1.337,0,0,1,1.312,1.314,1.494,1.494,0,0,1-1.312,1.311" transform="translate(-6646.383 -5275.29)"/>
      <path id="Path_1532058" data-name="Path 1532058" d="M427.057,25.335a10.093,10.093,0,1,1,10.094-10.094,10.124,10.124,0,0,1-10.094,10.094m0-17.664a7.571,7.571,0,1,0,7.57,7.57,7.625,7.625,0,0,0-7.57-7.57" transform="translate(-6646.383 -5275.29)"/>
    </g>
  </g>
</svg>
